<svg width="24" height="24" viewBox="0 0 24 24" fill="none" xmlns="http://www.w3.org/2000/svg">
<path fill-rule="evenodd" clip-rule="evenodd" d="M1.5 12C1.5 6.20101 6.20101 1.5 12 1.5C17.799 1.5 22.5 6.20101 22.5 12C22.5 17.799 17.799 22.5 12 22.5C6.20101 22.5 1.5 17.799 1.5 12ZM12 2.5C6.75329 2.5 2.5 6.75329 2.5 12C2.5 17.2467 6.75329 21.5 12 21.5C17.2467 21.5 21.5 17.2467 21.5 12C21.5 6.75329 17.2467 2.5 12 2.5Z" fill="#414141"/>
<path fill-rule="evenodd" clip-rule="evenodd" d="M1.5 12C1.5 11.7239 1.72386 11.5 2 11.5H22C22.2761 11.5 22.5 11.7239 22.5 12C22.5 12.2761 22.2761 12.5 22 12.5H2C1.72386 12.5 1.5 12.2761 1.5 12Z" fill="#414141"/>
<path fill-rule="evenodd" clip-rule="evenodd" d="M12.1809 1.53387C12.2552 1.56274 12.3198 1.60813 12.3711 1.66488C14.9529 4.49244 16.4201 8.1614 16.4999 11.9896C16.5 11.9965 16.5 12.0035 16.4999 12.0104C16.4201 15.8396 14.9522 19.5094 12.3692 22.3372C12.2744 22.4409 12.1405 22.5 12 22.5C11.8595 22.5 11.7256 22.4409 11.6308 22.3372C9.04781 19.5094 7.57988 15.8396 7.50011 12.0104C7.49996 12.0035 7.49996 11.9965 7.50011 11.9896C7.57988 8.16046 9.04781 4.49065 11.6308 1.66281C11.77 1.51045 11.9885 1.45923 12.1809 1.53387ZM8.50011 12C8.57326 15.3964 9.81229 18.6584 12 21.243C14.1877 18.6584 15.4267 15.3964 15.4999 12C15.4267 8.60361 14.1877 5.34159 12 2.75704C9.8123 5.34159 8.57326 8.60361 8.50011 12Z" fill="#414141"/>
</svg>
